# MagicaVoxel @ Ephtracy

# group
o 

# material
mtllib Tower Head Rifled Sniper.mtl
usemtl palette

# normals
vn -1 0 0
vn 1 0 0
vn 0 0 1
vn 0 0 -1
vn 0 -1 0
vn 0 1 0

# texcoords
vt 0.146484 0.5
vt 0.291016 0.5
vt 0.978516 0.5
vt 0.982422 0.5
vt 0.986328 0.5
vt 0.990234 0.5

# verts
v 1.3 2.9 -0.1
v 1.3 2.9 -1.9
v 1.3 3.1 -0.1
v 1.3 3.1 -1.9
v 1.4 2.5 -0.9
v 1.4 2.5 -1.1
v 1.4 2.7 -0.9
v 1.4 2.7 -1.1
v 1.4 2.8 -0.1
v 1.4 2.8 -1.9
v 1.4 2.9 0
v 1.4 2.9 -0.1
v 1.4 2.9 -1.9
v 1.4 2.9 -2
v 1.4 3.1 0
v 1.4 3.1 -0.1
v 1.4 3.1 -1.9
v 1.4 3.1 -2
v 1.4 3.2 -0.1
v 1.4 3.2 -1.9
v 1.5 2.3 -0.8
v 1.5 2.3 -1.2
v 1.5 2.5 -0.9
v 1.5 2.5 -1.1
v 1.5 2.6 -0.3
v 1.5 2.6 -0.8
v 1.5 2.6 -1.2
v 1.5 2.6 -1.8
v 1.5 2.7 -0.2
v 1.5 2.7 -0.3
v 1.5 2.7 -0.9
v 1.5 2.7 -1.1
v 1.5 2.7 -1.8
v 1.5 2.7 -1.9
v 1.5 2.8 -0.2
v 1.5 2.8 -0.8
v 1.5 2.8 -1.2
v 1.5 2.8 -1.9
v 1.5 3.2 -0.2
v 1.5 3.2 -1.9
v 1.5 3.3 -0.2
v 1.5 3.3 -0.3
v 1.5 3.4 -0.3
v 1.5 3.4 -0.4
v 1.5 3.4 -1.8
v 1.5 3.4 -1.9
v 1.5 3.5 -0.4
v 1.5 3.5 -1.8
v 1.6 2 -0.6
v 1.6 2 -1.4
v 1.6 2.3 -0.5
v 1.6 2.3 -0.6
v 1.6 2.3 -0.8
v 1.6 2.3 -1.2
v 1.6 2.3 -1.4
v 1.6 2.3 -1.5
v 1.6 2.6 -0.5
v 1.6 2.6 -0.8
v 1.6 2.6 -1.2
v 1.6 2.6 -1.5
v 1.7 3.5 -1
v 1.7 3.5 -1.8
v 1.7 3.6 -1
v 1.7 3.6 -1.8
v 1.8 2.8 -1.9
v 1.8 2.8 -2
v 1.8 2.9 -1.9
v 1.8 2.9 -2
v 1.8 2.9 -3
v 1.8 3.1 -1.9
v 1.8 3.1 -2
v 1.8 3.1 -3
v 1.8 3.2 -1.9
v 1.8 3.2 -2
v 1.8 3.5 -0.4
v 1.8 3.5 -1
v 1.8 3.6 -0.4
v 1.8 3.6 -1
v 1.9 2.9 -3
v 1.9 2.9 -3.8
v 1.9 3.1 -3
v 1.9 3.1 -3.8
v 2.1 3.5 -0.4
v 2.1 3.5 -1.8
v 2.1 3.6 -0.4
v 2.1 3.6 -1.8
v 1.9 3.5 -0.4
v 1.9 3.5 -1.8
v 1.9 3.6 -0.4
v 1.9 3.6 -1.8
v 2.1 2.9 -3
v 2.1 2.9 -3.8
v 2.1 3.1 -3
v 2.1 3.1 -3.8
v 2.2 2.8 -1.9
v 2.2 2.8 -2
v 2.2 2.9 -1.9
v 2.2 2.9 -2
v 2.2 2.9 -3
v 2.2 3.1 -1.9
v 2.2 3.1 -2
v 2.2 3.1 -3
v 2.2 3.2 -1.9
v 2.2 3.2 -2
v 2.2 3.5 -0.4
v 2.2 3.5 -1
v 2.2 3.6 -0.4
v 2.2 3.6 -1
v 2.3 3.5 -1
v 2.3 3.5 -1.8
v 2.3 3.6 -1
v 2.3 3.6 -1.8
v 2.4 2 -0.6
v 2.4 2 -1.4
v 2.4 2.3 -0.5
v 2.4 2.3 -0.6
v 2.4 2.3 -0.8
v 2.4 2.3 -1.2
v 2.4 2.3 -1.4
v 2.4 2.3 -1.5
v 2.4 2.6 -0.5
v 2.4 2.6 -0.8
v 2.4 2.6 -1.2
v 2.4 2.6 -1.5
v 2.5 2.3 -0.8
v 2.5 2.3 -1.2
v 2.5 2.5 -0.9
v 2.5 2.5 -1.1
v 2.5 2.6 -0.3
v 2.5 2.6 -0.8
v 2.5 2.6 -1.2
v 2.5 2.6 -1.8
v 2.5 2.7 -0.2
v 2.5 2.7 -0.3
v 2.5 2.7 -0.9
v 2.5 2.7 -1.1
v 2.5 2.7 -1.8
v 2.5 2.7 -1.9
v 2.5 2.8 -0.2
v 2.5 2.8 -0.8
v 2.5 2.8 -1.2
v 2.5 2.8 -1.9
v 2.5 3.2 -0.2
v 2.5 3.2 -1.9
v 2.5 3.3 -0.2
v 2.5 3.3 -0.3
v 2.5 3.4 -0.3
v 2.5 3.4 -0.4
v 2.5 3.4 -1.8
v 2.5 3.4 -1.9
v 2.5 3.5 -0.4
v 2.5 3.5 -1.8
v 2.6 2.5 -0.9
v 2.6 2.5 -1.1
v 2.6 2.7 -0.9
v 2.6 2.7 -1.1
v 2.6 2.8 -0.1
v 2.6 2.8 -1.9
v 2.6 2.9 0
v 2.6 2.9 -0.1
v 2.6 2.9 -1.9
v 2.6 2.9 -2
v 2.6 3.1 0
v 2.6 3.1 -0.1
v 2.6 3.1 -1.9
v 2.6 3.1 -2
v 2.6 3.2 -0.1
v 2.6 3.2 -1.9
v 2.7 2.9 -0.1
v 2.7 2.9 -1.9
v 2.7 3.1 -0.1
v 2.7 3.1 -1.9
v 1.4 2.9 0
v 1.4 3.1 0
v 2.6 2.9 0
v 2.6 3.1 0
v 1.3 2.9 -0.1
v 1.3 3.1 -0.1
v 1.4 2.8 -0.1
v 1.4 2.9 -0.1
v 1.4 3.1 -0.1
v 1.4 3.2 -0.1
v 1.5 2.8 -0.1
v 1.5 2.9 -0.1
v 1.5 3.1 -0.1
v 1.5 3.2 -0.1
v 2.5 2.8 -0.1
v 2.5 2.9 -0.1
v 2.5 3.1 -0.1
v 2.5 3.2 -0.1
v 2.6 2.8 -0.1
v 2.6 2.9 -0.1
v 2.6 3.1 -0.1
v 2.6 3.2 -0.1
v 2.7 2.9 -0.1
v 2.7 3.1 -0.1
v 1.5 2.7 -0.2
v 1.5 2.8 -0.2
v 1.5 3.2 -0.2
v 1.5 3.3 -0.2
v 2.5 2.7 -0.2
v 2.5 2.8 -0.2
v 2.5 3.2 -0.2
v 2.5 3.3 -0.2
v 1.5 2.6 -0.3
v 1.5 2.7 -0.3
v 1.5 3.3 -0.3
v 1.5 3.4 -0.3
v 2.5 2.6 -0.3
v 2.5 2.7 -0.3
v 2.5 3.3 -0.3
v 2.5 3.4 -0.3
v 1.5 3.4 -0.4
v 1.5 3.5 -0.4
v 1.8 3.5 -0.4
v 1.8 3.6 -0.4
v 1.9 3.5 -0.4
v 1.9 3.6 -0.4
v 2.1 3.5 -0.4
v 2.1 3.6 -0.4
v 2.2 3.5 -0.4
v 2.2 3.6 -0.4
v 2.5 3.4 -0.4
v 2.5 3.5 -0.4
v 1.6 2.3 -0.5
v 1.6 2.6 -0.5
v 2.4 2.3 -0.5
v 2.4 2.6 -0.5
v 1.6 2 -0.6
v 1.6 2.3 -0.6
v 2.4 2 -0.6
v 2.4 2.3 -0.6
v 1.5 2.3 -0.8
v 1.5 2.6 -0.8
v 1.6 2.3 -0.8
v 1.6 2.6 -0.8
v 2.4 2.3 -0.8
v 2.4 2.6 -0.8
v 2.5 2.3 -0.8
v 2.5 2.6 -0.8
v 1.4 2.5 -0.9
v 1.4 2.7 -0.9
v 1.5 2.5 -0.9
v 1.5 2.7 -0.9
v 2.5 2.5 -0.9
v 2.5 2.7 -0.9
v 2.6 2.5 -0.9
v 2.6 2.7 -0.9
v 1.7 3.5 -1
v 1.7 3.6 -1
v 1.8 3.5 -1
v 1.8 3.6 -1
v 2.2 3.5 -1
v 2.2 3.6 -1
v 2.3 3.5 -1
v 2.3 3.6 -1
v 1.4 2.5 -1.1
v 1.4 2.7 -1.1
v 1.5 2.5 -1.1
v 1.5 2.7 -1.1
v 2.5 2.5 -1.1
v 2.5 2.7 -1.1
v 2.6 2.5 -1.1
v 2.6 2.7 -1.1
v 1.5 2.3 -1.2
v 1.5 2.6 -1.2
v 1.6 2.3 -1.2
v 1.6 2.6 -1.2
v 2.4 2.3 -1.2
v 2.4 2.6 -1.2
v 2.5 2.3 -1.2
v 2.5 2.6 -1.2
v 1.6 2 -1.4
v 1.6 2.3 -1.4
v 2.4 2 -1.4
v 2.4 2.3 -1.4
v 1.6 2.3 -1.5
v 1.6 2.6 -1.5
v 2.4 2.3 -1.5
v 2.4 2.6 -1.5
v 1.5 2.6 -1.8
v 1.5 2.7 -1.8
v 1.5 3.4 -1.8
v 1.5 3.5 -1.8
v 1.7 3.5 -1.8
v 1.7 3.6 -1.8
v 1.9 3.5 -1.8
v 1.9 3.6 -1.8
v 2.1 3.5 -1.8
v 2.1 3.6 -1.8
v 2.3 3.5 -1.8
v 2.3 3.6 -1.8
v 2.5 2.6 -1.8
v 2.5 2.7 -1.8
v 2.5 3.4 -1.8
v 2.5 3.5 -1.8
v 1.3 2.9 -1.9
v 1.3 3.1 -1.9
v 1.4 2.8 -1.9
v 1.4 2.9 -1.9
v 1.4 3.1 -1.9
v 1.4 3.2 -1.9
v 1.5 2.7 -1.9
v 1.5 2.8 -1.9
v 1.5 2.9 -1.9
v 1.5 3.1 -1.9
v 1.5 3.2 -1.9
v 1.5 3.4 -1.9
v 1.8 2.8 -1.9
v 1.8 2.9 -1.9
v 1.8 3.1 -1.9
v 1.8 3.2 -1.9
v 2.2 2.8 -1.9
v 2.2 2.9 -1.9
v 2.2 3.1 -1.9
v 2.2 3.2 -1.9
v 2.5 2.7 -1.9
v 2.5 2.8 -1.9
v 2.5 2.9 -1.9
v 2.5 3.1 -1.9
v 2.5 3.2 -1.9
v 2.5 3.4 -1.9
v 2.6 2.8 -1.9
v 2.6 2.9 -1.9
v 2.6 3.1 -1.9
v 2.6 3.2 -1.9
v 2.7 2.9 -1.9
v 2.7 3.1 -1.9
v 1.4 2.9 -2
v 1.4 3.1 -2
v 1.8 2.8 -2
v 1.8 2.9 -2
v 1.8 3.1 -2
v 1.8 3.2 -2
v 1.9 2.9 -2
v 1.9 3.1 -2
v 2.1 2.9 -2
v 2.1 3.1 -2
v 2.2 2.8 -2
v 2.2 2.9 -2
v 2.2 3.1 -2
v 2.2 3.2 -2
v 2.6 2.9 -2
v 2.6 3.1 -2
v 1.8 2.9 -3
v 1.8 3.1 -3
v 1.9 2.9 -3
v 1.9 3.1 -3
v 2.1 2.9 -3
v 2.1 3.1 -3
v 2.2 2.9 -3
v 2.2 3.1 -3
v 1.9 2.9 -3.8
v 1.9 3.1 -3.8
v 2.1 2.9 -3.8
v 2.1 3.1 -3.8
v 1.6 2 -0.6
v 2.4 2 -0.6
v 1.6 2 -1.4
v 2.4 2 -1.4
v 1.6 2.3 -0.5
v 2.4 2.3 -0.5
v 1.6 2.3 -0.6
v 2.4 2.3 -0.6
v 1.5 2.3 -0.8
v 1.6 2.3 -0.8
v 2.4 2.3 -0.8
v 2.5 2.3 -0.8
v 1.5 2.3 -1.2
v 1.6 2.3 -1.2
v 2.4 2.3 -1.2
v 2.5 2.3 -1.2
v 1.6 2.3 -1.4
v 2.4 2.3 -1.4
v 1.6 2.3 -1.5
v 2.4 2.3 -1.5
v 1.4 2.5 -0.9
v 1.5 2.5 -0.9
v 2.5 2.5 -0.9
v 2.6 2.5 -0.9
v 1.4 2.5 -1.1
v 1.5 2.5 -1.1
v 2.5 2.5 -1.1
v 2.6 2.5 -1.1
v 1.5 2.6 -0.3
v 2.5 2.6 -0.3
v 1.6 2.6 -0.5
v 2.4 2.6 -0.5
v 1.5 2.6 -0.8
v 1.6 2.6 -0.8
v 2.4 2.6 -0.8
v 2.5 2.6 -0.8
v 1.5 2.6 -1.2
v 1.6 2.6 -1.2
v 2.4 2.6 -1.2
v 2.5 2.6 -1.2
v 1.6 2.6 -1.5
v 2.4 2.6 -1.5
v 1.5 2.6 -1.8
v 2.5 2.6 -1.8
v 1.5 2.7 -0.2
v 2.5 2.7 -0.2
v 1.5 2.7 -0.3
v 2.5 2.7 -0.3
v 1.5 2.7 -1.8
v 2.5 2.7 -1.8
v 1.5 2.7 -1.9
v 2.5 2.7 -1.9
v 1.4 2.8 -0.1
v 1.5 2.8 -0.1
v 2.5 2.8 -0.1
v 2.6 2.8 -0.1
v 1.5 2.8 -0.2
v 2.5 2.8 -0.2
v 1.5 2.8 -0.8
v 2.5 2.8 -0.8
v 1.5 2.8 -1.2
v 2.5 2.8 -1.2
v 1.4 2.8 -1.9
v 1.5 2.8 -1.9
v 1.8 2.8 -1.9
v 2.2 2.8 -1.9
v 2.5 2.8 -1.9
v 2.6 2.8 -1.9
v 1.8 2.8 -2
v 2.2 2.8 -2
v 1.4 2.9 0
v 2.6 2.9 0
v 1.3 2.9 -0.1
v 1.4 2.9 -0.1
v 1.5 2.9 -0.1
v 2.5 2.9 -0.1
v 2.6 2.9 -0.1
v 2.7 2.9 -0.1
v 1.3 2.9 -1.9
v 1.4 2.9 -1.9
v 1.5 2.9 -1.9
v 1.8 2.9 -1.9
v 2.2 2.9 -1.9
v 2.5 2.9 -1.9
v 2.6 2.9 -1.9
v 2.7 2.9 -1.9
v 1.4 2.9 -2
v 1.8 2.9 -2
v 1.9 2.9 -2
v 2.1 2.9 -2
v 2.2 2.9 -2
v 2.6 2.9 -2
v 1.8 2.9 -3
v 1.9 2.9 -3
v 2.1 2.9 -3
v 2.2 2.9 -3
v 1.9 2.9 -3.8
v 2.1 2.9 -3.8
v 1.4 2.7 -0.9
v 1.5 2.7 -0.9
v 2.5 2.7 -0.9
v 2.6 2.7 -0.9
v 1.4 2.7 -1.1
v 1.5 2.7 -1.1
v 2.5 2.7 -1.1
v 2.6 2.7 -1.1
v 1.4 3.1 0
v 2.6 3.1 0
v 1.3 3.1 -0.1
v 1.4 3.1 -0.1
v 1.5 3.1 -0.1
v 2.5 3.1 -0.1
v 2.6 3.1 -0.1
v 2.7 3.1 -0.1
v 1.3 3.1 -1.9
v 1.4 3.1 -1.9
v 1.5 3.1 -1.9
v 1.8 3.1 -1.9
v 2.2 3.1 -1.9
v 2.5 3.1 -1.9
v 2.6 3.1 -1.9
v 2.7 3.1 -1.9
v 1.4 3.1 -2
v 1.8 3.1 -2
v 1.9 3.1 -2
v 2.1 3.1 -2
v 2.2 3.1 -2
v 2.6 3.1 -2
v 1.8 3.1 -3
v 1.9 3.1 -3
v 2.1 3.1 -3
v 2.2 3.1 -3
v 1.9 3.1 -3.8
v 2.1 3.1 -3.8
v 1.4 3.2 -0.1
v 1.5 3.2 -0.1
v 2.5 3.2 -0.1
v 2.6 3.2 -0.1
v 1.5 3.2 -0.2
v 2.5 3.2 -0.2
v 1.4 3.2 -1.9
v 1.5 3.2 -1.9
v 1.8 3.2 -1.9
v 2.2 3.2 -1.9
v 2.5 3.2 -1.9
v 2.6 3.2 -1.9
v 1.8 3.2 -2
v 2.2 3.2 -2
v 1.5 3.3 -0.2
v 2.5 3.3 -0.2
v 1.5 3.3 -0.3
v 2.5 3.3 -0.3
v 1.5 3.4 -0.3
v 2.5 3.4 -0.3
v 1.5 3.4 -0.4
v 2.5 3.4 -0.4
v 1.5 3.4 -1.8
v 2.5 3.4 -1.8
v 1.5 3.4 -1.9
v 2.5 3.4 -1.9
v 1.5 3.5 -0.4
v 1.8 3.5 -0.4
v 1.9 3.5 -0.4
v 2.1 3.5 -0.4
v 2.2 3.5 -0.4
v 2.5 3.5 -0.4
v 1.7 3.5 -1
v 1.8 3.5 -1
v 2.2 3.5 -1
v 2.3 3.5 -1
v 1.5 3.5 -1.8
v 1.7 3.5 -1.8
v 1.9 3.5 -1.8
v 2.1 3.5 -1.8
v 2.3 3.5 -1.8
v 2.5 3.5 -1.8
v 1.8 3.6 -0.4
v 1.9 3.6 -0.4
v 2.1 3.6 -0.4
v 2.2 3.6 -0.4
v 1.7 3.6 -1
v 1.8 3.6 -1
v 2.2 3.6 -1
v 2.3 3.6 -1
v 1.7 3.6 -1.8
v 1.9 3.6 -1.8
v 2.1 3.6 -1.8
v 2.3 3.6 -1.8

# faces
f 3/1/1 2/1/1 1/1/1
f 4/1/1 2/1/1 3/1/1
f 7/5/1 6/5/1 5/5/1
f 8/5/1 6/5/1 7/5/1
f 12/1/1 10/1/1 9/1/1
f 13/1/1 10/1/1 12/1/1
f 15/1/1 12/1/1 11/1/1
f 16/1/1 12/1/1 15/1/1
f 17/1/1 14/1/1 13/1/1
f 18/1/1 14/1/1 17/1/1
f 19/1/1 17/1/1 16/1/1
f 20/1/1 17/1/1 19/1/1
f 23/3/1 22/3/1 21/3/1
f 24/3/1 22/3/1 23/3/1
f 26/3/1 23/3/1 21/3/1
f 27/3/1 22/3/1 24/3/1
f 30/2/1 26/2/1 25/2/1
f 31/3/1 23/3/1 26/3/1
f 32/3/1 27/3/1 24/3/1
f 33/2/1 28/2/1 27/2/1
f 35/2/1 30/2/1 29/2/1
f 36/3/1 32/3/1 31/3/1
f 36/2/1 30/2/1 35/2/1
f 36/3/1 31/3/1 26/3/1
f 36/2/1 26/2/1 30/2/1
f 37/2/1 34/2/1 33/2/1
f 37/3/1 32/3/1 36/3/1
f 37/2/1 33/2/1 27/2/1
f 37/3/1 27/3/1 32/3/1
f 38/2/1 34/2/1 37/2/1
f 41/2/1 40/2/1 39/2/1
f 42/2/1 40/2/1 41/2/1
f 43/2/1 40/2/1 42/2/1
f 44/2/1 40/2/1 43/2/1
f 45/2/1 40/2/1 44/2/1
f 46/2/1 40/2/1 45/2/1
f 47/2/1 45/2/1 44/2/1
f 48/2/1 45/2/1 47/2/1
f 52/2/1 50/2/1 49/2/1
f 53/2/1 50/2/1 52/2/1
f 54/2/1 50/2/1 53/2/1
f 55/2/1 50/2/1 54/2/1
f 57/2/1 52/2/1 51/2/1
f 57/2/1 53/2/1 52/2/1
f 58/2/1 53/2/1 57/2/1
f 59/2/1 56/2/1 55/2/1
f 59/2/1 55/2/1 54/2/1
f 60/2/1 56/2/1 59/2/1
f 63/4/1 62/4/1 61/4/1
f 64/4/1 62/4/1 63/4/1
f 67/6/1 66/6/1 65/6/1
f 68/6/1 66/6/1 67/6/1
f 71/6/1 69/6/1 68/6/1
f 72/6/1 69/6/1 71/6/1
f 73/6/1 71/6/1 70/6/1
f 74/6/1 71/6/1 73/6/1
f 77/4/1 76/4/1 75/4/1
f 78/4/1 76/4/1 77/4/1
f 81/5/1 80/5/1 79/5/1
f 82/5/1 80/5/1 81/5/1
f 85/4/1 84/4/1 83/4/1
f 86/4/1 84/4/1 85/4/1
f 87/4/2 88/4/2 89/4/2
f 89/4/2 88/4/2 90/4/2
f 91/5/2 92/5/2 93/5/2
f 93/5/2 92/5/2 94/5/2
f 95/6/2 96/6/2 97/6/2
f 97/6/2 96/6/2 98/6/2
f 98/6/2 99/6/2 101/6/2
f 101/6/2 99/6/2 102/6/2
f 100/6/2 101/6/2 103/6/2
f 103/6/2 101/6/2 104/6/2
f 105/4/2 106/4/2 107/4/2
f 107/4/2 106/4/2 108/4/2
f 109/4/2 110/4/2 111/4/2
f 111/4/2 110/4/2 112/4/2
f 113/2/2 114/2/2 116/2/2
f 116/2/2 114/2/2 117/2/2
f 117/2/2 114/2/2 118/2/2
f 118/2/2 114/2/2 119/2/2
f 115/2/2 116/2/2 121/2/2
f 116/2/2 117/2/2 121/2/2
f 121/2/2 117/2/2 122/2/2
f 119/2/2 120/2/2 123/2/2
f 118/2/2 119/2/2 123/2/2
f 123/2/2 120/2/2 124/2/2
f 125/3/2 126/3/2 127/3/2
f 127/3/2 126/3/2 128/3/2
f 125/3/2 127/3/2 130/3/2
f 128/3/2 126/3/2 131/3/2
f 129/2/2 130/2/2 134/2/2
f 130/3/2 127/3/2 135/3/2
f 128/3/2 131/3/2 136/3/2
f 131/2/2 132/2/2 137/2/2
f 133/2/2 134/2/2 139/2/2
f 135/3/2 136/3/2 140/3/2
f 139/2/2 134/2/2 140/2/2
f 130/3/2 135/3/2 140/3/2
f 134/2/2 130/2/2 140/2/2
f 137/2/2 138/2/2 141/2/2
f 140/3/2 136/3/2 141/3/2
f 131/2/2 137/2/2 141/2/2
f 136/3/2 131/3/2 141/3/2
f 141/2/2 138/2/2 142/2/2
f 143/2/2 144/2/2 145/2/2
f 145/2/2 144/2/2 146/2/2
f 146/2/2 144/2/2 147/2/2
f 147/2/2 144/2/2 148/2/2
f 148/2/2 144/2/2 149/2/2
f 149/2/2 144/2/2 150/2/2
f 148/2/2 149/2/2 151/2/2
f 151/2/2 149/2/2 152/2/2
f 153/5/2 154/5/2 155/5/2
f 155/5/2 154/5/2 156/5/2
f 157/1/2 158/1/2 160/1/2
f 160/1/2 158/1/2 161/1/2
f 159/1/2 160/1/2 163/1/2
f 163/1/2 160/1/2 164/1/2
f 161/1/2 162/1/2 165/1/2
f 165/1/2 162/1/2 166/1/2
f 164/1/2 165/1/2 167/1/2
f 167/1/2 165/1/2 168/1/2
f 169/1/2 170/1/2 171/1/2
f 171/1/2 170/1/2 172/1/2
f 175/1/3 174/1/3 173/1/3
f 176/1/3 174/1/3 175/1/3
f 180/1/3 178/1/3 177/1/3
f 181/1/3 178/1/3 180/1/3
f 183/1/3 180/1/3 179/1/3
f 184/1/3 180/1/3 183/1/3
f 185/1/3 182/1/3 181/1/3
f 186/1/3 182/1/3 185/1/3
f 187/2/3 184/2/3 183/2/3
f 188/2/3 184/2/3 187/2/3
f 189/2/3 186/2/3 185/2/3
f 190/2/3 186/2/3 189/2/3
f 191/1/3 188/1/3 187/1/3
f 192/1/3 188/1/3 191/1/3
f 193/1/3 190/1/3 189/1/3
f 194/1/3 190/1/3 193/1/3
f 195/1/3 193/1/3 192/1/3
f 196/1/3 193/1/3 195/1/3
f 201/2/3 198/2/3 197/2/3
f 202/2/3 198/2/3 201/2/3
f 203/2/3 200/2/3 199/2/3
f 204/2/3 200/2/3 203/2/3
f 209/2/3 206/2/3 205/2/3
f 210/2/3 206/2/3 209/2/3
f 211/2/3 208/2/3 207/2/3
f 212/2/3 208/2/3 211/2/3
f 215/2/3 214/2/3 213/2/3
f 217/2/3 215/2/3 213/2/3
f 217/4/3 216/4/3 215/4/3
f 218/4/3 216/4/3 217/4/3
f 219/2/3 217/2/3 213/2/3
f 221/2/3 219/2/3 213/2/3
f 221/4/3 220/4/3 219/4/3
f 222/4/3 220/4/3 221/4/3
f 223/2/3 221/2/3 213/2/3
f 224/2/3 221/2/3 223/2/3
f 227/2/3 226/2/3 225/2/3
f 228/2/3 226/2/3 227/2/3
f 231/2/3 230/2/3 229/2/3
f 232/2/3 230/2/3 231/2/3
f 235/3/3 234/3/3 233/3/3
f 236/3/3 234/3/3 235/3/3
f 239/3/3 238/3/3 237/3/3
f 240/3/3 238/3/3 239/3/3
f 243/5/3 242/5/3 241/5/3
f 244/5/3 242/5/3 243/5/3
f 247/5/3 246/5/3 245/5/3
f 248/5/3 246/5/3 247/5/3
f 251/4/3 250/4/3 249/4/3
f 252/4/3 250/4/3 251/4/3
f 255/4/3 254/4/3 253/4/3
f 256/4/3 254/4/3 255/4/3
f 257/5/4 258/5/4 259/5/4
f 259/5/4 258/5/4 260/5/4
f 261/5/4 262/5/4 263/5/4
f 263/5/4 262/5/4 264/5/4
f 265/3/4 266/3/4 267/3/4
f 267/3/4 266/3/4 268/3/4
f 269/3/4 270/3/4 271/3/4
f 271/3/4 270/3/4 272/3/4
f 273/2/4 274/2/4 275/2/4
f 275/2/4 274/2/4 276/2/4
f 277/2/4 278/2/4 279/2/4
f 279/2/4 278/2/4 280/2/4
f 283/2/4 284/2/4 285/2/4
f 283/2/4 285/2/4 287/2/4
f 285/4/4 286/4/4 287/4/4
f 287/4/4 286/4/4 288/4/4
f 283/2/4 287/2/4 289/2/4
f 283/2/4 289/2/4 291/2/4
f 289/4/4 290/4/4 291/4/4
f 291/4/4 290/4/4 292/4/4
f 281/2/4 282/2/4 293/2/4
f 293/2/4 282/2/4 294/2/4
f 283/2/4 291/2/4 295/2/4
f 295/2/4 291/2/4 296/2/4
f 297/1/4 298/1/4 300/1/4
f 300/1/4 298/1/4 301/1/4
f 299/1/4 300/1/4 304/1/4
f 304/1/4 300/1/4 305/1/4
f 301/1/4 302/1/4 306/1/4
f 306/1/4 302/1/4 307/1/4
f 304/2/4 305/2/4 309/2/4
f 303/2/4 304/2/4 309/2/4
f 309/2/4 305/2/4 310/2/4
f 307/2/4 308/2/4 311/2/4
f 306/2/4 307/2/4 311/2/4
f 311/2/4 308/2/4 312/2/4
f 303/2/4 309/2/4 313/2/4
f 312/2/4 308/2/4 316/2/4
f 313/2/4 314/2/4 317/2/4
f 303/2/4 313/2/4 317/2/4
f 317/2/4 314/2/4 318/2/4
f 318/2/4 314/2/4 319/2/4
f 315/2/4 316/2/4 320/2/4
f 316/2/4 308/2/4 321/2/4
f 320/2/4 316/2/4 321/2/4
f 321/2/4 308/2/4 322/2/4
f 318/1/4 319/1/4 323/1/4
f 323/1/4 319/1/4 324/1/4
f 320/1/4 321/1/4 325/1/4
f 325/1/4 321/1/4 326/1/4
f 324/1/4 325/1/4 327/1/4
f 327/1/4 325/1/4 328/1/4
f 329/1/4 330/1/4 332/1/4
f 332/1/4 330/1/4 333/1/4
f 331/6/4 332/6/4 335/6/4
f 333/6/4 334/6/4 336/6/4
f 331/6/4 335/6/4 337/6/4
f 336/6/4 334/6/4 338/6/4
f 331/6/4 337/6/4 339/6/4
f 339/6/4 337/6/4 340/6/4
f 338/6/4 334/6/4 341/6/4
f 341/6/4 334/6/4 342/6/4
f 340/1/4 341/1/4 343/1/4
f 343/1/4 341/1/4 344/1/4
f 345/6/4 346/6/4 347/6/4
f 347/6/4 346/6/4 348/6/4
f 349/6/4 350/6/4 351/6/4
f 351/6/4 350/6/4 352/6/4
f 353/5/4 354/5/4 355/5/4
f 355/5/4 354/5/4 356/5/4
f 359/2/5 358/2/5 357/2/5
f 360/2/5 358/2/5 359/2/5
f 363/2/5 362/2/5 361/2/5
f 364/2/5 362/2/5 363/2/5
f 369/3/5 366/3/5 365/3/5
f 370/3/5 366/3/5 369/3/5
f 371/3/5 368/3/5 367/3/5
f 372/3/5 368/3/5 371/3/5
f 375/2/5 374/2/5 373/2/5
f 376/2/5 374/2/5 375/2/5
f 381/5/5 378/5/5 377/5/5
f 382/5/5 378/5/5 381/5/5
f 383/5/5 380/5/5 379/5/5
f 384/5/5 380/5/5 383/5/5
f 387/2/5 386/2/5 385/2/5
f 388/2/5 386/2/5 387/2/5
f 389/2/5 387/2/5 385/2/5
f 390/2/5 387/2/5 389/2/5
f 391/2/5 386/2/5 388/2/5
f 392/2/5 386/2/5 391/2/5
f 397/2/5 394/2/5 393/2/5
f 398/2/5 396/2/5 395/2/5
f 399/2/5 397/2/5 393/2/5
f 399/2/5 398/2/5 397/2/5
f 400/2/5 396/2/5 398/2/5
f 400/2/5 398/2/5 399/2/5
f 403/2/5 402/2/5 401/2/5
f 404/2/5 402/2/5 403/2/5
f 407/2/5 406/2/5 405/2/5
f 408/2/5 406/2/5 407/2/5
f 413/1/5 410/1/5 409/1/5
f 413/2/5 411/2/5 410/2/5
f 414/1/5 412/1/5 411/1/5
f 414/2/5 411/2/5 413/2/5
f 415/1/5 413/1/5 409/1/5
f 416/1/5 412/1/5 414/1/5
f 417/1/5 415/1/5 409/1/5
f 418/1/5 412/1/5 416/1/5
f 419/1/5 417/1/5 409/1/5
f 420/1/5 417/1/5 419/1/5
f 423/1/5 412/1/5 418/1/5
f 424/1/5 412/1/5 423/1/5
f 425/6/5 422/6/5 421/6/5
f 426/6/5 422/6/5 425/6/5
f 430/1/5 428/1/5 427/1/5
f 431/1/5 428/1/5 430/1/5
f 432/1/5 428/1/5 431/1/5
f 433/1/5 428/1/5 432/1/5
f 435/1/5 430/1/5 429/1/5
f 436/1/5 430/1/5 435/1/5
f 441/1/5 434/1/5 433/1/5
f 442/1/5 434/1/5 441/1/5
f 443/1/5 437/1/5 436/1/5
f 443/1/5 438/1/5 437/1/5
f 444/1/5 438/1/5 443/1/5
f 447/1/5 440/1/5 439/1/5
f 447/1/5 441/1/5 440/1/5
f 448/1/5 441/1/5 447/1/5
f 449/6/5 445/6/5 444/6/5
f 450/5/5 446/5/5 445/5/5
f 450/6/5 445/6/5 449/6/5
f 451/6/5 447/6/5 446/6/5
f 451/5/5 446/5/5 450/5/5
f 452/6/5 447/6/5 451/6/5
f 453/5/5 451/5/5 450/5/5
f 454/5/5 451/5/5 453/5/5
f 455/5/6 456/5/6 459/5/6
f 459/5/6 456/5/6 460/5/6
f 457/5/6 458/5/6 461/5/6
f 461/5/6 458/5/6 462/5/6
f 463/1/6 464/1/6 466/1/6
f 466/1/6 464/1/6 467/1/6
f 467/1/6 464/1/6 468/1/6
f 468/1/6 464/1/6 469/1/6
f 465/1/6 466/1/6 471/1/6
f 471/1/6 466/1/6 472/1/6
f 469/1/6 470/1/6 477/1/6
f 477/1/6 470/1/6 478/1/6
f 472/1/6 473/1/6 479/1/6
f 473/1/6 474/1/6 479/1/6
f 479/1/6 474/1/6 480/1/6
f 475/1/6 476/1/6 483/1/6
f 476/1/6 477/1/6 483/1/6
f 483/1/6 477/1/6 484/1/6
f 480/6/6 481/6/6 485/6/6
f 481/5/6 482/5/6 486/5/6
f 485/6/6 481/6/6 486/6/6
f 482/6/6 483/6/6 487/6/6
f 486/5/6 482/5/6 487/5/6
f 487/6/6 483/6/6 488/6/6
f 486/5/6 487/5/6 489/5/6
f 489/5/6 487/5/6 490/5/6
f 491/1/6 492/1/6 495/1/6
f 492/2/6 493/2/6 495/2/6
f 493/1/6 494/1/6 496/1/6
f 495/2/6 493/2/6 496/2/6
f 491/1/6 495/1/6 497/1/6
f 497/1/6 495/1/6 498/1/6
f 496/1/6 494/1/6 501/1/6
f 501/1/6 494/1/6 502/1/6
f 499/6/6 500/6/6 503/6/6
f 503/6/6 500/6/6 504/6/6
f 505/2/6 506/2/6 507/2/6
f 507/2/6 506/2/6 508/2/6
f 509/2/6 510/2/6 511/2/6
f 511/2/6 510/2/6 512/2/6
f 513/2/6 514/2/6 515/2/6
f 515/2/6 514/2/6 516/2/6
f 517/2/6 518/2/6 523/2/6
f 523/2/6 518/2/6 524/2/6
f 521/2/6 522/2/6 525/2/6
f 525/2/6 522/2/6 526/2/6
f 517/2/6 523/2/6 527/2/6
f 527/2/6 523/2/6 528/2/6
f 519/2/6 520/2/6 529/2/6
f 529/2/6 520/2/6 530/2/6
f 526/2/6 522/2/6 531/2/6
f 531/2/6 522/2/6 532/2/6
f 533/4/6 534/4/6 538/4/6
f 535/4/6 536/4/6 539/4/6
f 537/4/6 538/4/6 541/4/6
f 538/4/6 534/4/6 542/4/6
f 541/4/6 538/4/6 542/4/6
f 539/4/6 540/4/6 543/4/6
f 535/4/6 539/4/6 543/4/6
f 543/4/6 540/4/6 544/4/6
